<svg xmlns="http://www.w3.org/2000/svg" viewBox="0 0 100 100">
  <defs>
    <linearGradient id="gLeft" x1="0" y1="0" x2="0" y2="1">
      <stop offset="0%" stop-color="#a78bfa"/>
      <stop offset="100%" stop-color="#7c3aed"/>
    </linearGradient>
    <linearGradient id="gRight" x1="0" y1="0" x2="0" y2="1">
      <stop offset="0%" stop-color="#3b82f6"/>
      <stop offset="100%" stop-color="#22d3ee"/>
    </linearGradient>
    <linearGradient id="gSwoosh" x1="0" y1="1" x2="1" y2="0">
      <stop offset="0%" stop-color="#7c3aed"/>
      <stop offset="55%" stop-color="#3b82f6"/>
      <stop offset="100%" stop-color="#22d3ee"/>
    </linearGradient>
    <linearGradient id="gBars" x1="0" y1="1" x2="0" y2="0">
      <stop offset="0%" stop-color="#3b82f6"/>
      <stop offset="100%" stop-color="#22d3ee"/>
    </linearGradient>
  </defs>
  <path d="M50 5 14 92h19L50 5Z" fill="url(#gLeft)"/>
  <path d="M50 5 86 92H67L50 5Z" fill="url(#gRight)"/>
  <rect x="40" y="75" width="5.5" height="10" rx="1.4" fill="url(#gBars)"/>
  <rect x="47.3" y="67" width="5.5" height="18" rx="1.4" fill="url(#gBars)"/>
  <rect x="54.6" y="57" width="5.5" height="28" rx="1.4" fill="url(#gBars)"/>
  <path d="M23 62c9 15 24 15 32-2 8-17 20-24 34-32" fill="none" stroke="url(#gSwoosh)" stroke-width="6.5" stroke-linecap="round"/>
  <path d="M90 14 92.6 20 98.5 22.5 92.6 25 90 31 87.4 25 81.5 22.5 87.4 20Z" fill="#67e8f9"/>
</svg>
